<mxfile host="app.diagrams.net" agent="Mozilla/5.0 (Macintosh; Intel Mac OS X 10_15_7) AppleWebKit/537.36 (KHTML, like Gecko) Chrome/131.0.0.0 Safari/537.36" version="25.0.1">
  <diagram name="Page-1" id="38b20595-45e3-9b7f-d5ca-b57f44c5b66d">
    <mxGraphModel dx="2926" dy="1869" grid="1" gridSize="10" guides="1" tooltips="1" connect="1" arrows="1" fold="1" page="1" pageScale="1" pageWidth="850" pageHeight="1400" background="none" math="0" shadow="0">
      <root>
        <mxCell id="0" />
        <mxCell id="1" parent="0" />
        <mxCell id="48ef80bc37b76060-128" value="" style="verticalLabelPosition=bottom;html=1;verticalAlign=top;align=center;strokeWidth=1;shape=mxgraph.floorplan.wallU;fillColor=#000000;rounded=0;shadow=0;comic=0;fontFamily=Verdana;fontSize=12;rotation=90;" parent="1" vertex="1">
          <mxGeometry x="-280" y="760" width="2395" height="1040.75" as="geometry" />
        </mxCell>
        <mxCell id="48ef80bc37b76060-130" value="" style="verticalLabelPosition=bottom;html=1;verticalAlign=top;align=center;strokeWidth=1;shape=mxgraph.floorplan.wallU;fillColor=#000000;rounded=0;shadow=0;comic=0;fontFamily=Verdana;fontSize=12;rotation=90;" parent="1" vertex="1">
          <mxGeometry x="-180" y="1170" width="1390" height="245" as="geometry" />
        </mxCell>
        <mxCell id="48ef80bc37b76060-156" value="" style="verticalLabelPosition=bottom;html=1;verticalAlign=top;align=center;strokeWidth=1;shape=mxgraph.floorplan.wall;fillColor=#000000;direction=south;rounded=0;shadow=0;comic=0;fontFamily=Verdana;fontSize=12;" parent="1" vertex="1">
          <mxGeometry x="393" y="80" width="10" height="2390" as="geometry" />
        </mxCell>
        <mxCell id="gsH9_d9Gx8ErYXkKZmmA-2" value="" style="rounded=0;whiteSpace=wrap;html=1;strokeWidth=10;" parent="1" vertex="1">
          <mxGeometry x="430" y="120" width="975" height="170" as="geometry" />
        </mxCell>
        <mxCell id="gsH9_d9Gx8ErYXkKZmmA-3" value="" style="rounded=0;whiteSpace=wrap;html=1;strokeWidth=10;rotation=-180;" parent="1" vertex="1">
          <mxGeometry x="730" y="760" width="470" height="210" as="geometry" />
        </mxCell>
        <mxCell id="gsH9_d9Gx8ErYXkKZmmA-4" value="" style="rounded=0;whiteSpace=wrap;html=1;strokeWidth=10;rotation=-180;" parent="1" vertex="1">
          <mxGeometry x="740" y="1040" width="470" height="210" as="geometry" />
        </mxCell>
        <mxCell id="gsH9_d9Gx8ErYXkKZmmA-5" value="" style="rounded=0;whiteSpace=wrap;html=1;strokeWidth=10;rotation=-90;" parent="1" vertex="1">
          <mxGeometry x="760" y="1380" width="210" height="210" as="geometry" />
        </mxCell>
        <mxCell id="gsH9_d9Gx8ErYXkKZmmA-6" value="" style="rounded=0;whiteSpace=wrap;html=1;strokeWidth=10;rotation=-90;" parent="1" vertex="1">
          <mxGeometry x="1130" y="1820" width="412.5" height="125" as="geometry" />
        </mxCell>
        <mxCell id="gsH9_d9Gx8ErYXkKZmmA-7" value="" style="rounded=0;whiteSpace=wrap;html=1;strokeWidth=10;rotation=-90;" parent="1" vertex="1">
          <mxGeometry x="650" y="1810" width="280" height="210" as="geometry" />
        </mxCell>
        <mxCell id="gsH9_d9Gx8ErYXkKZmmA-8" value="" style="rounded=0;whiteSpace=wrap;html=1;strokeWidth=10;rotation=-90;" parent="1" vertex="1">
          <mxGeometry x="1260" y="920" width="175" height="160" as="geometry" />
        </mxCell>
        <mxCell id="gsH9_d9Gx8ErYXkKZmmA-9" value="" style="rounded=0;whiteSpace=wrap;html=1;strokeWidth=10;rotation=-90;" parent="1" vertex="1">
          <mxGeometry x="1248.75" y="510" width="175" height="160" as="geometry" />
        </mxCell>
        <mxCell id="gsH9_d9Gx8ErYXkKZmmA-10" value="" style="rounded=0;whiteSpace=wrap;html=1;strokeWidth=10;rotation=-180;" parent="1" vertex="1">
          <mxGeometry x="670" y="350" width="470" height="150" as="geometry" />
        </mxCell>
        <mxCell id="gsH9_d9Gx8ErYXkKZmmA-11" value="" style="rounded=0;whiteSpace=wrap;html=1;strokeWidth=10;rotation=-90;" parent="1" vertex="1">
          <mxGeometry x="640" y="2150" width="300" height="210" as="geometry" />
        </mxCell>
        <mxCell id="gsH9_d9Gx8ErYXkKZmmA-12" value="" style="ellipse;whiteSpace=wrap;html=1;aspect=fixed;strokeWidth=10;" parent="1" vertex="1">
          <mxGeometry x="1272.5" y="2200" width="127.5" height="127.5" as="geometry" />
        </mxCell>
        <mxCell id="CL0BPm-SDJ4Kflx-78Mh-1" value="" style="verticalLabelPosition=bottom;html=1;verticalAlign=top;align=center;strokeWidth=6;shape=mxgraph.floorplan.doorRight;rounded=0;shadow=0;comic=0;fontFamily=Verdana;fontSize=12;rotation=90;" vertex="1" parent="1">
          <mxGeometry x="1310" y="1300" width="165" height="85" as="geometry" />
        </mxCell>
        <mxCell id="CL0BPm-SDJ4Kflx-78Mh-3" value="" style="rounded=0;whiteSpace=wrap;html=1;rotation=90;" vertex="1" parent="1">
          <mxGeometry x="1359.5" y="775.5" width="147" height="20" as="geometry" />
        </mxCell>
        <mxCell id="48ef80bc37b76060-332" value="" style="verticalLabelPosition=bottom;html=1;verticalAlign=top;align=center;strokeWidth=1;shape=mxgraph.floorplan.dresser;rounded=0;shadow=0;comic=0;fontFamily=Verdana;fontSize=12;rotation=90;" parent="1" vertex="1">
          <mxGeometry x="1389.26" y="739.62" width="140.74" height="94.25" as="geometry" />
        </mxCell>
      </root>
    </mxGraphModel>
  </diagram>
</mxfile>
